<svg width="39" height="38" viewBox="0 0 39 38" fill="none" xmlns="http://www.w3.org/2000/svg">
<mask id="mask0_20_183" style="mask-type:luminance" maskUnits="userSpaceOnUse" x="0" y="0" width="39" height="38">
<path d="M6.83117 27.3448C3.58825 28.3177 1.58337 29.6614 1.58337 31.1458C1.58337 34.1146 9.60467 36.5208 19.5 36.5208C29.3954 36.5208 37.4167 34.1146 37.4167 31.1458C37.4167 29.6614 35.4109 28.3177 32.1689 27.3448" stroke="white" stroke-width="2.75" stroke-linecap="round" stroke-linejoin="round"/>
<path d="M19.5001 29.3541C19.5001 29.3541 31.1459 21.7431 31.1459 12.9443C31.1459 6.66985 25.9322 1.58331 19.5001 1.58331C13.068 1.58331 7.85425 6.66985 7.85425 12.9443C7.85425 21.7431 19.5001 29.3541 19.5001 29.3541Z" fill="white" stroke="white" stroke-width="2.75" stroke-linejoin="round"/>
<path d="M19.5 17.7083C20.688 17.7083 21.8273 17.2364 22.6673 16.3964C23.5073 15.5564 23.9792 14.4171 23.9792 13.2292C23.9792 12.0412 23.5073 10.9019 22.6673 10.0619C21.8273 9.22191 20.688 8.75 19.5 8.75C18.3121 8.75 17.1728 9.22191 16.3328 10.0619C15.4928 10.9019 15.0209 12.0412 15.0209 13.2292C15.0209 14.4171 15.4928 15.5564 16.3328 16.3964C17.1728 17.2364 18.3121 17.7083 19.5 17.7083Z" fill="black" stroke="black" stroke-width="2.75" stroke-linejoin="round"/>
</mask>
<g mask="url(#mask0_20_183)">
<path d="M-2 -2H41V41H-2V-2Z" fill="#0F4A76"/>
</g>
</svg>
