<?xml version="1.0" standalone="no"?>
<!DOCTYPE svg PUBLIC "-//W3C//DTD SVG 20010904//EN"
 "http://www.w3.org/TR/2001/REC-SVG-20010904/DTD/svg10.dtd">
<svg version="1.0" xmlns="http://www.w3.org/2000/svg"
 width="360.000000pt" height="300.000000pt" viewBox="0 0 360.000000 300.000000"
 preserveAspectRatio="xMidYMid meet">

<g transform="translate(0.000000,300.000000) scale(0.100000,-0.100000)"
fill="#000000" stroke="none">
<path d="M1596 2934 c-195 -35 -399 -128 -538 -244 -123 -102 -143 -125 -231
-256 -80 -121 -125 -222 -156 -354 -31 -132 -36 -204 -16 -223 22 -23 28 -22
208 23 170 44 193 53 201 83 5 21 -5 21 -216 1 -80 -8 -78 -12 -44 107 71 242
214 440 417 575 109 72 197 112 326 146 127 33 360 33 483 0 220 -59 411 -179
538 -336 124 -153 177 -253 216 -409 28 -111 45 -144 80 -153 40 -10 66 11 66
55 0 153 -114 420 -248 581 -67 79 -186 187 -262 235 -240 152 -556 217 -824
169z"/>
<path d="M1627 2628 c-26 -25 -39 -31 -68 -29 -68 5 -115 -73 -70 -118 20 -20
31 -21 201 -21 177 0 181 0 189 22 16 44 -17 88 -66 88 -14 0 -23 6 -23 16 0
8 -13 29 -29 45 -42 41 -91 40 -134 -3z"/>
<path d="M2042 2624 c-24 -17 -30 -62 -10 -82 15 -15 53 -16 79 -2 39 21 11
100 -36 100 -6 0 -21 -7 -33 -16z"/>
<path d="M2250 2450 c-15 -16 -37 -30 -47 -30 -21 0 -53 -29 -53 -48 0 -6 7
-18 16 -26 22 -22 235 -23 254 -1 18 22 2 55 -31 62 -16 3 -29 10 -29 15 0 15
-48 58 -66 58 -9 0 -29 -13 -44 -30z"/>
<path d="M1191 2394 c-17 -14 -38 -24 -48 -23 -56 8 -105 -55 -81 -106 6 -14
21 -28 32 -31 12 -2 86 -3 165 -2 131 3 145 5 157 23 19 29 -2 67 -44 80 -17
5 -32 12 -32 16 0 4 -12 21 -26 38 -33 40 -79 42 -123 5z"/>
<path d="M1756 2298 c-33 -46 -4 -108 49 -108 39 0 29 -18 -12 -22 -41 -3 -57
-26 -24 -35 31 -8 22 -24 -34 -58 l-48 -30 -243 -5 c-220 -5 -244 -7 -263 -24
-22 -20 -41 -74 -41 -119 0 -33 -78 -117 -110 -117 -50 0 -77 -74 -46 -129 13
-23 13 -23 39 22 15 25 27 57 27 71 0 15 6 26 14 26 7 0 25 9 39 20 14 11 28
20 32 20 12 0 -2 -92 -19 -125 -12 -22 -14 -45 -10 -91 5 -42 2 -77 -9 -115
l-16 -55 -89 -28 -88 -29 -27 27 c-35 35 -103 37 -116 4 -23 -58 166 -305 323
-423 226 -170 541 -265 781 -236 133 16 165 35 217 125 52 91 92 118 134 91
36 -24 40 -42 16 -91 l-22 -44 51 21 c175 68 426 287 503 437 31 59 -17 95
-74 55 -13 -9 -168 -87 -345 -173 -321 -157 -532 -265 -549 -281 -29 -26 -204
0 -364 54 -75 26 -202 95 -202 111 0 23 100 95 188 134 136 60 387 162 452
183 30 9 133 44 228 77 160 55 169 60 135 66 -28 4 -41 2 -49 -9 -12 -16 -29
-21 -19 -5 7 12 -39 24 -60 16 -8 -3 -15 -1 -15 4 0 6 6 10 13 10 8 0 14 7 14
15 0 8 -7 15 -14 15 -8 0 -11 -5 -7 -12 5 -7 2 -9 -8 -5 -10 3 -15 0 -14 -10
0 -9 -6 -18 -14 -20 -13 -4 -13 -3 0 6 13 9 12 11 -2 16 -17 7 -91 -11 -206
-48 -66 -22 -73 -23 -81 -8 -34 66 -16 169 38 226 53 55 60 72 76 176 16 113
33 133 113 145 68 11 76 27 38 77 -23 30 -24 36 -11 47 18 15 11 30 -16 30
-10 0 -19 5 -19 10 0 6 11 10 23 10 13 0 32 9 42 20 20 22 24 75 8 91 -7 7 -9
3 -6 -14 3 -16 -2 -32 -14 -44 -17 -17 -34 -19 -134 -19 -63 1 -120 5 -126 9
-16 10 -17 59 -1 75 9 9 9 12 1 12 -7 0 -19 -10 -27 -22z m-276 -641 c30 0 85
4 121 8 l66 7 11 -58 c17 -83 15 -120 -10 -164 -22 -39 -28 -41 -183 -94 -333
-113 -393 -143 -382 -188 10 -35 -22 -18 -77 44 -31 34 -56 64 -56 68 0 7 130
61 215 89 152 49 370 132 383 145 20 20 8 46 -22 46 -14 0 -60 -11 -103 -25
-101 -32 -109 -32 -122 6 -18 52 -14 89 9 89 11 0 28 9 37 20 12 14 23 18 38
12 11 -4 45 -6 75 -5z m-236 -59 c31 -108 31 -107 2 -118 -74 -28 -76 -27 -76
29 0 50 33 141 51 141 5 0 15 -24 23 -52z m853 -114 c-3 -3 -12 -4 -19 -1 -8
3 -5 6 6 6 11 1 17 -2 13 -5z"/>
<path d="M2430 2205 c-23 -19 -52 -47 -63 -61 -18 -24 -25 -26 -69 -21 -38 5
-50 3 -55 -9 -10 -26 11 -34 63 -28 43 6 55 13 104 65 45 47 62 58 91 61 20 1
44 -4 53 -11 20 -17 49 -6 44 16 -3 14 -15 19 -64 21 -57 3 -64 1 -104 -33z"/>
<path d="M2500 2102 c-28 -22 -30 -70 -4 -89 39 -29 94 -5 94 40 0 28 -9 41
-37 56 -28 14 -27 14 -53 -7z m64 -28 c8 -22 -12 -56 -31 -52 -22 4 -38 32
-30 52 8 21 53 21 61 0z"/>
<path d="M334 1986 c-42 -19 -54 -31 -67 -65 -35 -87 -16 -182 49 -245 84 -81
203 -85 423 -14 128 41 135 45 143 74 4 17 17 39 28 49 20 18 28 41 11 31 -4
-3 -80 -24 -167 -47 -201 -53 -309 -59 -362 -19 -18 13 -36 38 -41 55 -18 69
40 132 83 89 12 -11 13 -20 6 -34 -7 -14 -6 -23 6 -34 20 -21 26 -20 57 4 56
44 39 123 -35 159 -56 27 -71 26 -134 -3z"/>
<path d="M3103 1991 c-53 -25 -75 -58 -71 -107 4 -49 44 -82 78 -64 16 9 21
18 17 36 -5 26 15 54 38 54 7 0 23 -12 35 -27 29 -37 21 -87 -20 -128 -28 -28
-35 -30 -103 -29 -60 0 -95 9 -207 48 -243 86 -533 167 -547 152 -3 -3 -12 -1
-20 6 -7 6 -17 8 -20 4 -10 -10 19 -27 35 -21 7 3 10 1 7 -4 -3 -5 3 -12 12
-14 15 -4 15 -5 -2 -6 -17 -1 -18 -3 -5 -11 13 -8 12 -10 -4 -10 -12 0 -16 5
-12 15 7 19 -8 20 -26 2 -7 -8 -20 -17 -28 -20 -8 -4 -3 -5 13 -2 15 3 27 1
27 -5 0 -5 10 -10 23 -10 21 -1 73 -14 212 -54 33 -10 150 -53 261 -97 217
-87 282 -101 358 -79 57 16 123 72 147 124 68 150 -61 311 -198 247z"/>
<path d="M2190 1880 c-18 -12 -2 -12 25 0 13 6 15 9 5 9 -8 0 -22 -4 -30 -9z"/>
<path d="M1895 1645 c-50 -51 -28 -66 63 -44 66 16 71 25 13 24 -27 -1 -47 3
-45 7 3 4 0 8 -7 8 -8 0 -8 4 1 15 20 24 3 17 -25 -10z m15 -19 c0 -2 -7 -7
-16 -10 -8 -3 -12 -2 -9 4 6 10 25 14 25 6z"/>
<path d="M915 1580 c-33 -11 -68 -20 -78 -20 -26 0 -34 -30 -11 -47 24 -19 96
-13 147 12 32 15 38 22 35 44 -4 33 -19 35 -93 11z"/>
<path d="M2580 1500 c20 -13 33 -13 25 0 -3 6 -14 10 -23 10 -15 0 -15 -2 -2
-10z"/>
<path d="M2542 1480 c-7 -11 -18 -20 -25 -20 -6 0 -3 8 8 16 19 16 19 16 -5 9
-14 -4 -65 -23 -115 -42 -49 -19 -139 -53 -200 -75 -179 -65 -187 -68 -255
-98 -103 -44 -300 -126 -363 -151 -31 -13 -67 -31 -78 -42 -18 -17 -19 -21 -7
-39 19 -28 93 -57 150 -57 39 -1 73 12 215 84 252 126 604 295 617 295 3 0 49
20 102 45 52 25 101 45 107 46 7 0 3 4 -8 8 -12 5 -23 4 -27 -3 -5 -7 -8 -6
-8 4 0 13 -2 13 -9 1 -5 -8 -22 -15 -37 -17 -21 -2 -25 -1 -14 6 9 6 10 10 3
10 -15 0 -35 -35 -25 -45 4 -5 2 -5 -5 -1 -7 4 -9 14 -6 23 5 12 2 15 -10 10
-9 -3 -17 -4 -17 -1 0 2 11 9 25 14 14 5 25 15 25 22 0 10 -3 9 -9 -1 -7 -11
-10 -11 -12 3 -4 14 -6 14 -17 -4z"/>
<path d="M2645 1490 c-3 -6 1 -7 9 -4 18 7 21 14 7 14 -6 0 -13 -4 -16 -10z"/>
<path d="M219 1439 c-26 -50 28 -146 99 -176 47 -20 64 -5 50 45 -32 116 -117
191 -149 131z"/>
<path d="M3266 1430 c-41 -37 -76 -104 -76 -148 0 -38 14 -41 69 -12 68 34
111 113 91 166 -13 33 -42 31 -84 -6z"/>
<path d="M3021 1359 c-26 -10 -35 -31 -27 -62 13 -52 99 -54 112 -3 12 49 -33
84 -85 65z"/>
<path d="M470 1339 c-29 -52 26 -107 75 -75 27 18 34 63 13 84 -20 20 -76 15
-88 -9z"/>
<path d="M170 1209 c-31 -12 -50 -37 -43 -55 8 -22 79 -54 132 -61 49 -6 161
19 161 36 0 19 -63 61 -112 76 -58 17 -101 18 -138 4z"/>
<path d="M3242 1201 c-64 -22 -107 -58 -91 -77 6 -7 35 -18 65 -25 131 -29
285 62 179 107 -45 19 -88 17 -153 -5z"/>
<path d="M568 1159 c-26 -14 -22 -40 11 -86 46 -64 180 -119 194 -80 12 33
-62 133 -117 158 -47 21 -64 23 -88 8z"/>
<path d="M2907 1144 c-78 -41 -142 -164 -86 -164 99 0 218 111 182 169 -15 24
-43 23 -96 -5z"/>
<path d="M374 986 c-43 -19 -49 -33 -27 -58 28 -32 76 -48 146 -48 64 0 151
23 164 43 9 14 -41 52 -87 66 -51 15 -158 13 -196 -3z"/>
<path d="M2985 981 c-22 -10 -48 -27 -58 -38 -17 -20 -17 -21 34 -43 69 -29
192 -26 236 6 42 32 42 61 -1 79 -50 21 -161 19 -211 -4z"/>
<path d="M817 892 c-20 -22 -22 -63 -5 -80 21 -21 66 -14 83 12 36 55 -35 116
-78 68z"/>
<path d="M2686 894 c-19 -18 -21 -65 -4 -82 7 -7 24 -12 38 -12 33 0 50 17 50
51 0 32 -23 59 -50 59 -10 0 -26 -7 -34 -16z"/>
<path d="M2882 378 l3 -343 60 0 60 0 0 340 0 340 -63 3 -62 3 2 -343z"/>
<path d="M3115 707 c-3 -6 -4 -161 -3 -342 l3 -330 60 0 60 0 3 75 c2 56 7 78
19 87 9 7 20 13 23 13 4 0 37 -38 75 -84 37 -47 73 -87 79 -89 25 -8 154 -8
159 0 3 5 -7 22 -22 39 -60 64 -191 225 -191 234 0 5 34 47 75 92 l74 83 -76
3 -76 3 -68 -73 -68 -73 -1 188 0 187 -60 0 c-40 0 -62 -4 -65 -13z"/>
<path d="M17 633 c-4 -3 -7 -138 -7 -299 0 -325 -5 -304 70 -304 68 0 70 2 70
101 l0 89 83 0 c101 0 156 24 202 88 40 57 47 149 16 209 -25 50 -79 96 -130
112 -41 12 -293 16 -304 4z m284 -152 c35 -36 37 -70 6 -107 -21 -24 -31 -27
-88 -28 l-64 -1 -3 83 -3 82 61 0 c55 0 65 -3 91 -29z"/>
<path d="M1912 573 l3 -68 92 -3 93 -3 2 -232 3 -232 53 -3 c31 -2 60 2 68 9
11 9 14 54 14 235 l0 224 85 0 85 0 0 70 0 70 -250 0 -251 0 3 -67z"/>
<path d="M1310 545 c0 -52 -1 -55 -25 -55 -23 0 -25 -4 -25 -44 0 -57 8 -76
30 -76 16 0 19 -12 22 -119 2 -102 6 -124 24 -148 28 -39 101 -74 144 -71 33
3 35 5 38 42 5 54 -5 87 -22 80 -8 -3 -24 4 -35 15 -18 18 -21 33 -21 111 l0
90 40 0 40 0 0 59 0 60 -37 3 -38 3 -3 53 -3 52 -65 0 -64 0 0 -55z"/>
<path d="M570 487 c-74 -27 -75 -28 -34 -80 26 -34 42 -46 53 -41 9 3 33 8 53
11 30 4 41 1 62 -20 46 -46 36 -57 -51 -58 -99 0 -141 -15 -170 -58 -41 -61
-22 -145 43 -188 43 -28 143 -25 184 5 17 13 34 21 37 18 4 -3 3 -6 -2 -6 -4
0 0 -9 10 -20 14 -16 31 -20 77 -20 55 0 58 1 48 19 -5 11 -10 82 -10 158 0
150 -12 195 -61 240 -55 50 -161 68 -239 40z m147 -278 c36 -30 -6 -72 -68
-67 -42 3 -44 5 -47 36 -3 26 1 34 20 42 26 11 75 5 95 -11z"/>
<path d="M1003 480 c-55 -24 -83 -70 -83 -134 0 -43 4 -53 38 -86 28 -28 51
-41 95 -50 90 -21 105 -60 23 -60 -29 0 -55 8 -79 24 l-36 24 -30 -46 c-16
-25 -28 -50 -25 -54 3 -4 25 -19 49 -34 89 -52 206 -40 271 27 25 27 29 38 29
90 0 57 -2 63 -36 93 -27 25 -47 34 -89 39 -30 4 -61 13 -69 22 -14 13 -14 17
2 32 17 17 44 14 107 -10 10 -4 26 9 47 38 29 41 30 44 14 59 -52 47 -156 59
-228 26z"/>
<path d="M1665 481 c-57 -26 -111 -90 -130 -154 -37 -128 44 -257 180 -288 98
-22 210 33 254 124 25 51 28 141 7 191 -20 48 -75 107 -121 127 -52 24 -138
24 -190 0z m144 -126 c16 -8 36 -30 45 -50 23 -47 7 -98 -38 -126 -47 -29 -82
-25 -122 15 -47 47 -47 95 0 142 38 38 70 43 115 19z"/>
<path d="M2500 494 c-8 -3 -32 -12 -52 -21 l-37 -16 32 -44 c17 -25 34 -46 38
-48 3 -2 22 1 41 7 43 13 81 5 108 -22 39 -39 27 -47 -77 -52 -141 -5 -183
-35 -183 -130 0 -111 132 -173 244 -113 35 19 46 21 46 10 0 -21 33 -35 82
-35 l43 0 -3 152 c-4 214 -23 264 -114 303 -35 14 -135 19 -168 9z m114 -274
c32 -12 36 -54 7 -70 -27 -14 -84 -13 -99 2 -19 19 -14 45 10 62 26 18 46 20
82 6z"/>
</g>
</svg>
