<svg width="41" height="39" viewBox="0 0 41 39" fill="none" xmlns="http://www.w3.org/2000/svg">
<path d="M4.76096 0.366821C-2.52612 4.62231 0.475485 11.8629 15.1204 11.8629L15.3585 5.94767C9.38975 7.12345 1.15626 7.25522 4.76096 0.366821ZM36.5453 0.366821C40.1499 7.25539 31.9165 7.12337 25.9477 5.94758L26.1859 11.8629C40.8309 11.8629 43.8323 4.62239 36.5453 0.366821ZM13.6305 16.541C13.3116 16.5498 12.979 16.607 12.6382 16.7163C12.4797 19.2209 13.6149 20.9414 16.7128 20.0656C16.674 17.8602 15.3527 16.4938 13.6305 16.541ZM27.6738 16.541C25.9516 16.4938 24.6302 17.8602 24.5916 20.0655C27.6894 20.9415 28.8247 19.2209 28.6664 16.7162C28.3255 16.607 27.9928 16.5498 27.6738 16.541ZM23.2123 30.2053L22.3059 31.4874C23.6106 32.4094 23.9175 34.1914 22.9954 35.496C22.0735 36.8008 20.2928 37.1065 18.9882 36.1846C17.6835 35.2626 17.3766 33.4809 18.2987 32.1762C18.4689 31.9347 18.6754 31.7211 18.9108 31.5427L17.9649 30.2918C17.6003 30.5671 17.2805 30.897 17.0165 31.2698C15.6052 33.2673 16.0845 36.0554 18.0819 37.4668C20.0794 38.8783 22.8653 38.3989 24.2767 36.4014C25.6882 34.404 25.2096 31.6167 23.2123 30.2053Z" fill="#0F4A76"/>
</svg>
