<svg width="247" height="167" viewBox="0 0 247 167" fill="none" xmlns="http://www.w3.org/2000/svg">
<path d="M144.196 7.9292C137.008 8.02705 131.846 8.97295 128.421 10.669L81.4811 27.6626L55.3821 51.6656C49.8824 57.4062 53.7901 68.496 70.9643 61.3855L89.7787 44.6203C113.659 30.696 162.383 37.0857 139.275 65.0386C127.938 81.2167 133.245 89.1101 147.862 92.4371L154.52 77.3027C166.05 59.7546 187.566 56.5908 186.697 42.4349L238.413 44.9464L237.931 8.38584L144.196 7.9292ZM118.097 41.6521C109.703 41.5543 101.453 43.9027 95.4713 47.2949L76.6086 64.0601C81.7705 66.8326 86.9807 65.3322 92.1426 61.9726C98.2211 64.0601 102.949 60.831 106.808 54.3728C108.4 49.9695 110.764 46.8709 118.097 41.6521ZM79.6961 72.9646C79.5032 72.9646 79.2619 72.9646 79.069 72.9972C77.477 73.2255 75.5955 74.3671 74.3412 76.9765C73.0387 79.5859 72.7492 83.3043 73.9071 87.2836C75.0649 91.2302 77.477 94.5898 80.1785 96.6773C82.7836 98.7322 85.1957 99.3193 86.7877 99.091C88.428 98.8953 90.2612 97.7211 91.5155 95.1443C92.818 92.5349 93.1557 88.7839 91.9979 84.8373C90.7918 80.858 88.3797 77.4984 85.7264 75.4435C83.4108 73.6169 81.2881 72.9646 79.6961 72.9646ZM119.544 107.8C115.733 107.832 110.957 108.648 106.278 110.181C100.923 111.975 96.7256 114.454 94.4582 116.737C92.1908 118.987 91.9979 120.684 92.7215 121.695C93.4451 122.673 95.5678 123.619 99.6201 123.75C103.672 123.913 109.124 123.162 114.479 121.369C119.834 119.575 124.031 117.128 126.298 114.845C128.565 112.594 128.758 110.866 128.035 109.887C127.311 108.876 125.189 107.963 121.136 107.832C120.605 107.8 120.123 107.8 119.544 107.8ZM72.4598 138.982C70.1924 139.014 68.118 139.243 66.2848 139.602C62.1842 140.417 59.8203 141.885 59.0485 143.613C58.2283 145.375 59.0485 147.462 61.7983 149.713C64.5963 151.931 69.2758 154.051 75.0649 155.225C80.8057 156.399 86.4018 156.367 90.5506 155.519C94.6994 154.703 97.0633 153.235 97.8352 151.507C98.6071 149.745 97.8352 147.658 95.0371 145.407C92.2873 143.189 87.6078 141.069 81.8188 139.895C78.5383 139.243 75.3543 138.949 72.4598 138.982Z" fill="#0F4A76"/>
</svg>
