<svg width="29" height="41" viewBox="0 0 29 41" fill="none" xmlns="http://www.w3.org/2000/svg">
<path d="M24.9812 0.791687H4.01871V7.22377L0.166626 16.0029V40.2084H28.8333V16.0029L24.9812 7.22377V0.791687ZM23.3365 12.3945L25.25 16.7554V36.625H21.7562V16.6981L23.3365 12.3945ZM18.1729 18.1709V36.625H3.74996V18.1709H18.1729ZM4.69954 14.5875L6.98033 9.39169H20.6221L18.714 14.5875H4.69954ZM7.60204 5.80835V4.37502H21.3979V5.80835H7.60204ZM16.2916 22.2917H13.7367L10.913 25.1297L8.07683 22.2917H5.54163V33.0417H9.12496V28.4084L10.9202 30.2037L12.7083 28.4066V33.0417H16.2916V22.2917Z" fill="#0F4A76"/>
</svg>
