<svg width="43" height="43" viewBox="0 0 43 43" fill="none" xmlns="http://www.w3.org/2000/svg">
<path d="M23.1125 18.8125C22.0375 18.5438 20.9625 18.0062 20.1562 17.2C19.35 16.9312 19.0813 16.125 19.0813 15.5875C19.0813 15.05 19.35 14.2437 19.8875 13.975C20.6937 13.4375 21.5 12.9 22.3062 13.1687C23.9188 13.1687 25.2625 13.975 26.0688 15.05L28.4875 11.825C27.6813 11.0188 26.875 10.4812 26.0688 9.94375C25.2625 9.40625 24.1875 9.1375 23.1125 9.1375V5.375H19.8875V9.1375C18.5437 9.40625 17.2 10.2125 16.125 11.2875C15.05 12.6312 14.2438 14.2438 14.5125 15.8562C14.5125 17.4688 15.05 19.0812 16.125 20.1562C17.4688 21.5 19.35 22.3063 20.9625 23.1125C21.7688 23.3813 22.8438 23.9188 23.65 24.4563C24.1875 24.9938 24.4563 25.8 24.4563 26.6062C24.4563 27.4125 24.1875 28.2188 23.65 29.025C22.8438 29.8313 21.7688 30.1 20.9625 30.1C19.8875 30.1 18.5438 29.8313 17.7375 29.025C16.9313 28.4875 16.125 27.6812 15.5875 26.875L12.9 29.8313C13.7063 30.9063 14.5125 31.7125 15.5875 32.5187C16.9312 33.325 18.5438 34.1312 20.1562 34.1312V37.625H23.1125V33.5938C24.725 33.325 26.0688 32.5187 27.1438 31.4438C28.4875 30.1 29.2937 27.95 29.2937 26.0688C29.2937 24.4562 28.7563 22.575 27.4125 21.5C26.0688 20.1562 24.725 19.35 23.1125 18.8125ZM21.5 0C9.675 0 0 9.675 0 21.5C0 33.325 9.675 43 21.5 43C33.325 43 43 33.325 43 21.5C43 9.675 33.325 0 21.5 0ZM21.5 40.0438C11.2875 40.0438 2.95625 31.7125 2.95625 21.5C2.95625 11.2875 11.2875 2.95625 21.5 2.95625C31.7125 2.95625 40.0438 11.2875 40.0438 21.5C40.0438 31.7125 31.7125 40.0438 21.5 40.0438Z" fill="#0F4A76"/>
</svg>
